<svg width="45" height="45" viewBox="0 0 22 22" fill="none" xmlns="http://www.w3.org/2000/svg">
<path d="M11 22C17.0751 22 22 17.0751 22 11C22 4.92487 17.0751 0 11 0C4.92487 0 0 4.92487 0 11C0 17.0751 4.92487 22 11 22Z" fill="url(#paint0_linear_1277_13301)"/>
<path d="M8.8002 16.5C8.41144 16.5 8.4775 16.3532 8.34342 15.9831L7.2002 12.2206L16.0002 7" fill="#C8DAEA"/>
<path d="M8.7998 16.5002C9.0998 16.5002 9.23235 16.363 9.3998 16.2002L10.9998 14.6444L9.004 13.4409" fill="#A9C9DD"/>
<path d="M9.00373 13.4412L13.8397 17.0141C14.3916 17.3186 14.7899 17.161 14.9273 16.5018L16.8958 7.22549C17.0974 6.41747 16.5878 6.05099 16.0599 6.29067L4.50088 10.7478C3.71187 11.0642 3.71647 11.5044 4.35706 11.7006L7.32337 12.6264L14.1907 8.2939C14.5149 8.09731 14.8124 8.203 14.5682 8.41974" fill="url(#paint1_linear_1277_13301)"/>
<defs>
<linearGradient id="paint0_linear_1277_13301" x1="8.2511" y1="0.9174" x2="2.7511" y2="13.75" gradientUnits="userSpaceOnUse">
<stop stop-color="#000000"/>
<stop offset="1" stop-color="#000000"/>
</linearGradient>
<linearGradient id="paint1_linear_1277_13301" x1="9.49753" y1="11.7374" x2="10.7797" y2="15.8848" gradientUnits="userSpaceOnUse">
<stop stop-color="#EFF7FC"/>
<stop offset="1" stop-color="white"/>
</linearGradient>
</defs>
</svg>